<svg xmlns="http://www.w3.org/2000/svg" xmlns:svg="http://www.w3.org/2000/svg" id="svg4331" width="130.932" height="127.7" version="1.1" viewBox="0 0 122.748 119.719"><metadata id="metadata4336"/><g id="layer1" transform="translate(-182.49527,-601.07436)"><path id="path106" fill="#fff" fill-opacity="1" fill-rule="evenodd" stroke="none" d="m 243.86382,601.07436 c -33.88683,0 -61.36855,27.4778 -61.36855,61.37608 0,27.1161 17.58393,50.11815 41.97235,58.23381 3.07069,0.56516 4.1897,-1.33015 4.1897,-2.9578 0,-1.45796 -0.0528,-5.3161 -0.0829,-10.43658 -17.07152,3.70744 -20.67346,-8.22869 -20.67346,-8.22869 -2.79187,-7.09084 -6.81579,-8.97831 -6.81579,-8.97831 -5.57245,-3.80539 0.42198,-3.73004 0.42198,-3.73004 6.16022,0.43314 9.40045,6.32584 9.40045,6.32584 5.47449,9.378 14.3663,6.66886 17.86274,5.09787 0.55762,-3.96363 2.14383,-6.66885 3.89582,-8.20246 -13.62783,-1.54838 -27.95645,-6.81565 -27.95645,-30.33373 0,-6.699 2.3925,-12.18117 6.31846,-16.46883 -0.63298,-1.5523 -2.73913,-7.79526 0.60283,-16.24247 0,0 5.15047,-1.65026 16.8756,6.29208 4.89426,-1.36391 10.14646,-2.0421 15.36474,-2.06863 5.21452,0.0301 10.46295,0.70472 15.36475,2.06863 11.71759,-7.94234 16.86052,-6.29208 16.86052,-6.29208 3.3495,8.44721 1.24335,14.69017 0.61414,16.24247 3.9335,4.28766 6.30716,9.76983 6.30716,16.46883 0,23.57836 -14.35123,28.76636 -28.0205,30.2849 2.20034,1.89501 4.16332,5.64012 4.16332,11.36343 0,8.20608 -0.0753,14.82581 -0.0753,16.83777 0,1.64272 1.10771,3.5531 4.21984,2.95388 24.36958,-8.13434 41.93844,-31.12132 41.93844,-58.22989 0,-33.89828 -27.48172,-61.37608 -61.37985,-61.37608"/></g></svg>